<svg width="24" height="22" viewBox="0 0 24 22" fill="none" xmlns="http://www.w3.org/2000/svg">
                                <path fill-rule="evenodd" clip-rule="evenodd" d="M6.30132 1.97592C3.68357 1.97592 1.56146 4.22731 1.56146 7.00454C1.56146 8.33821 2.06083 9.61726 2.94973 10.5603L11.7109 19.8553L20.4721 10.5603C21.361 9.61726 21.8604 8.33821 21.8604 7.00454C21.8604 4.22731 19.7383 1.97592 17.1206 1.97592C15.8635 1.97592 14.6579 2.50572 13.769 3.44877L12.263 5.04649C11.9581 5.36996 11.4638 5.36996 11.1589 5.04649L9.65291 3.44877C8.76401 2.50572 7.55841 1.97592 6.30132 1.97592ZM0 7.00454C0 3.3124 2.8212 0.319336 6.30132 0.319336C7.97253 0.319336 9.5753 1.02367 10.757 2.27739L11.7109 3.28941L12.6649 2.27739C13.8466 1.02367 15.4493 0.319336 17.1206 0.319336C20.6007 0.319336 23.4219 3.3124 23.4219 7.00454C23.4219 8.77756 22.758 10.478 21.5763 11.7317L12.263 21.6123C11.9581 21.9358 11.4638 21.9358 11.1589 21.6123L1.84561 11.7317C0.663885 10.478 0 8.77756 0 7.00454Z" fill="#FF868E"/>
                                </svg>