<svg width="24" height="25" viewBox="0 0 24 25" fill="none" xmlns="http://www.w3.org/2000/svg">
                                <path fill-rule="evenodd" clip-rule="evenodd" d="M0.000244141 12.4642C0.000244141 5.60238 5.24341 0.0397949 11.7112 0.0397949C18.179 0.0397949 23.4221 5.60238 23.4221 12.4642C23.4221 19.326 18.179 24.8886 11.7112 24.8886C5.24341 24.8886 0.000244141 19.326 0.000244141 12.4642ZM11.7112 1.69638C6.10578 1.69638 1.5617 6.51729 1.5617 12.4642C1.5617 18.4111 6.10578 23.232 11.7112 23.232C17.3166 23.232 21.8607 18.4111 21.8607 12.4642C21.8607 6.51729 17.3166 1.69638 11.7112 1.69638ZM7.80754 9.9793H6.24608V8.32272H7.80754V9.9793ZM17.1763 9.9793H15.6148V8.32272H17.1763V9.9793ZM7.18295 13.7894L7.65139 14.4521C9.68128 17.3235 13.7411 17.3235 15.771 14.4521L16.2394 13.7894L17.4886 14.7834L17.0201 15.446C14.3657 19.201 9.0567 19.201 6.40222 15.446L5.93379 14.7834L7.18295 13.7894Z" fill="#FF868E"/>
                                </svg>